PathFileType	4	(X/Y/Z)	temp_trc_file_rotated.trc
DataRate	CameraRate	NumFrames	NumMarkers	Units	OrigDataRate	OrigDataStartFrame	OrigNumFrames
250.000000	250.000000	5	40	mm	250.000000	403	806
Frame#	Time	C7			T10			LTH3			RPSI			RTH3			LTB2			LCAL			RMT2			RTB2			RCAL			RMT1			LMT2			LTH2			RTH1			LMT1			LTB1			RTH2			LTB3			LTH1			RTB1			RTB3			CLAV			LASI			STRN			RASI			LPSI			RLFC			RMFC			LLFC			LMFC			RMMAL			RLMAL			LMMAL			LLMAL			LAJC			LHJC			LKJC			RAJC			RHJC			RKJC			
		X1	Y1	Z1	X2	Y2	Z2	X3	Y3	Z3	X4	Y4	Z4	X5	Y5	Z5	X6	Y6	Z6	X7	Y7	Z7	X8	Y8	Z8	X9	Y9	Z9	X10	Y10	Z10	X11	Y11	Z11	X12	Y12	Z12	X13	Y13	Z13	X14	Y14	Z14	X15	Y15	Z15	X16	Y16	Z16	X17	Y17	Z17	X18	Y18	Z18	X19	Y19	Z19	X20	Y20	Z20	X21	Y21	Z21	X22	Y22	Z22	X23	Y23	Z23	X24	Y24	Z24	X25	Y25	Z25	X26	Y26	Z26	X27	Y27	Z27	X28	Y28	Z28	X29	Y29	Z29	X30	Y30	Z30	X31	Y31	Z31	X32	Y32	Z32	X33	Y33	Z33	X34	Y34	Z34	X35	Y35	Z35	X36	Y36	Z36	X37	Y37	Z37	X38	Y38	Z38	X39	Y39	Z39	X40	Y40	Z40	

404	1.612	3538.87939453125	-665.2630615233459	-1547.538452148438	959.1876831054688	658.1615600585938	1272.71826171875	978.5530395507812	522.226318359375	650.079833984375	937.6187744140625	720.8753662109375	1070.616577148438	721.5796508789062	819.3987426757812	677.2535400390625	1115.013549804688	542.4255981445312	345.1334838867188	1288.974731445312	632.5438232421875	107.1732788085938	361.5799560546875	768.3103637695312	136.6236267089844	609.4822998046875	785.7454223632812	333.5557250976562	561.6508178710938	699.9081420898438	49.2163200378418	348.6920776367188	689.0917358398438	161.7805633544922	1077.457397460938	571.7220458984375	50.92731475830078	841.684326171875	544.54150390625	710.525390625	800.4828491210938	823.616943359375	864.2986450195312	1055.684814453125	665.3963012695312	52.47248077392578	1024.814697265625	629.2354736328125	411.6319580078125	686.3961791992188	737.9769897460938	799.5177001953125	1122.183837890625	643.7080078125	239.7803039550781	914.6480102539062	486.387939453125	835.1806640625	605.9144897460938	690.3702392578125	439.8689270019531	540.1964111328125	691.4946899414062	256.302001953125	767.6778564453125	656.5330200195312	1442.367797851562	770.8975830078125	548.2703857421875	1003.71533203125	733.6046752929688	664.7176513671875	1262.203735351562	759.6113891601562	747.4360961914062	1014.136901855469	944.5419311523438	609.0681762695312	1072.511596679688	661.8426513671875	789.9818115234375	494.0185546875	661.4995727539062	686.3535766601562	482.8049011230469	999.8094482421875	554.990478515625	501.3218383789062	989.3258056640625	656.8453369140625	511.28271484375	502.532470703125	670.0730590820312	148.1145629882812	516.9524536132812	756.9208984375	131.6317749023438	1155.0615234375	666.0850219726562	144.2998504638672	1198.941528320312	582.391845703125	135.9563751220703	1177.001586914062	624.2384643554688	140.1281127929688	853.5125732421875	560.9190673828125	915.8358764648438	994.567626953125	605.9179077148438	506.3022766113281	509.7424621582031	713.4969482421875	139.8731689453125	831.2034912109375	747.745361328125	919.6509399414062	661.671142578125	738.167724609375	488.4117126464844	
405	1.616	3538.87939453125	-665.2630615233459	-1547.538452148438	952.3568115234375	658.5211791992188	1271.4091796875	972.5523071289062	522.22021484375	649.2100219726562	931.026611328125	721.2349243164062	1068.911743164062	713.3152465820312	819.114013671875	675.9243774414062	1111.174438476562	541.9942016601562	345.2455139160156	1288.163818359375	632.0347900390625	109.0467758178711	352.0284118652344	767.1068725585938	137.9460144042969	601.52197265625	786.3922119140625	332.7871704101562	551.3085327148438	699.5221557617188	48.09228515625	339.8669128417969	687.583984375	163.5210266113281	1077.496337890625	571.6652221679688	50.94397735595703	835.6184692382812	544.3013916015625	709.10595703125	793.5401000976562	824.9635009765625	862.457763671875	1055.689819335938	665.1806640625	52.39176940917969	1020.500793457031	629.2037353515625	410.7595825195312	680.8126831054688	736.680908203125	797.0706176757812	1120.095703125	643.49169921875	240.1883392333984	908.1530151367188	486.3330078125	834.0338134765625	598.0362548828125	690.3002319335938	439.0482482910156	532.0179443359375	690.980224609375	255.9143676757812	759.9539794921875	656.6450805664062	1440.870849609375	764.0842895507812	548.1442260742188	1002.110412597656	727.1282958984375	665.1676025390625	1260.508178710938	753.1224975585938	747.3665161132812	1012.47216796875	938.0072021484375	609.499755859375	1070.905517578125	652.8541870117188	788.6035766601562	492.7079772949219	655.086669921875	685.0247802734375	481.2570495605469	994.28662109375	554.9856567382812	500.4470825195312	983.5974731445312	656.8248291015625	510.3498840332031	494.2584533691406	669.584228515625	147.7073059082031	508.3804321289062	756.4530029296875	131.0774230957031	1154.306274414062	665.8416748046875	145.1565246582031	1197.890869140625	581.9542236328125	137.2266387939453	1176.098510742188	623.89794921875	141.1915740966797	847.0100708007812	560.8676147460938	914.3213500976562	988.9420166015625	605.9052734375	505.3984985351562	501.3194274902344	713.0186157226562	139.3923645019531	824.4092407226562	747.6640625	917.8716430664062	653.970458984375	736.814208984375	486.9825134277344	
406	1.62	3538.87939453125	-665.2630615233459	-1547.538452148438	945.4590454101562	658.9635009765625	1270.112548828125	966.5191650390625	522.0472412109375	648.1319580078125	924.5908203125	721.5160522460938	1067.502807617188	704.9742431640625	818.1349487304688	674.8406372070312	1107.586791992188	541.6862182617188	345.3381652832031	1287.31591796875	631.4818725585938	111.0528793334961	343.3478393554688	765.3418579101562	138.8381500244141	593.59521484375	785.7052612304688	331.9034729003906	542.0733642578125	699.3456420898438	46.97209548950195	332.0841064453125	686.2618408203125	164.3631134033203	1077.409912109375	571.660888671875	50.93070983886719	829.390380859375	543.892578125	707.65673828125	786.5162963867188	824.000732421875	861.052001953125	1055.601196289062	664.946044921875	52.31688690185547	1016.0771484375	628.9788818359375	409.8473510742188	675.0139770507812	735.77587890625	795.7344360351562	1117.71337890625	643.0784912109375	240.4312591552734	901.814208984375	486.2271728515625	832.9454956054688	590.30419921875	689.9324340820312	438.3995666503906	523.888671875	690.3967895507812	255.1744079589844	753.014892578125	657.2003173828125	1439.258666992188	757.3895874023438	548.0870361328125	1000.75732421875	720.30712890625	665.3125	1258.648681640625	746.1704711914062	747.2620239257812	1010.806701660156	931.1915283203125	609.9657592773438	1069.431884765625	643.878173828125	788.11865234375	491.9454345703125	647.0943603515625	684.6194458007812	480.0191650390625	988.4542846679688	554.6767578125	499.3711547851562	977.4928588867188	656.5018920898438	509.1193542480469	485.9357604980469	668.8201904296875	147.1771545410156	500.1101379394531	755.6502075195312	130.3901977539062	1153.079956054688	665.3312377929688	145.7586975097656	1196.724853515625	581.4210815429688	138.4231719970703	1174.90234375	623.3761596679688	142.0909271240234	840.4866333007812	560.7901000976562	913.0171508789062	982.9735717773438	605.5892944335938	504.2452392578125	493.02294921875	712.2352294921875	138.7836761474609	817.44287109375	747.5390014648438	916.205078125	645.4862670898438	736.3690185546875	485.9822998046875	
407	1.624	3538.87939453125	-665.2630615233459	-1547.538452148438	938.6636352539062	659.2357177734375	1268.888549804688	960.3319091796875	521.8638305664062	646.9452514648438	917.8862915039062	721.83984375	1065.872436523438	696.4175415039062	817.3065185546875	674.1588745117188	1103.320922851562	541.328857421875	345.4691772460938	1286.41357421875	630.8798217773438	113.0320129394531	335.4838256835938	763.9529418945312	138.663330078125	585.6701049804688	785.3076782226562	331.0328369140625	534.085693359375	699.4744262695312	45.66434478759766	324.8446044921875	684.7294311523438	164.313720703125	1076.852172851562	571.0674438476562	50.92695617675781	822.9766845703125	543.4153442382812	706.07080078125	779.3193359375	824.3853759765625	859.9397583007812	1055.562133789062	664.7938842773438	52.26647567749023	1011.650146484375	628.9485473632812	408.9794006347656	668.8262939453125	735.012939453125	794.9197998046875	1115.344970703125	642.7474365234375	240.6556854248047	895.341064453125	486.2958679199219	831.7885131835938	582.3209228515625	689.4761352539062	437.6103515625	516.4468383789062	689.90185546875	254.4467315673828	745.5311279296875	657.4144287109375	1437.75439453125	750.4036254882812	548.2076416015625	999.2494506835938	713.2639770507812	665.421630859375	1257.177001953125	739.507568359375	747.5613403320312	1009.266052246094	924.75146484375	610.2804565429688	1067.944580078125	634.532470703125	786.5379028320312	491.6624755859375	639.1473388671875	683.0933227539062	479.7214050292969	982.447021484375	554.1785278320312	498.14892578125	971.11279296875	655.9905395507812	507.6038208007812	478.7337646484375	668.30810546875	146.1505126953125	492.7996520996094	755.1695556640625	129.4353332519531	1151.83544921875	664.9628295898438	146.5173034667969	1195.1083984375	580.8284912109375	139.5548858642578	1173.471923828125	622.8956298828125	143.0360870361328	833.6817626953125	560.9444580078125	911.5396728515625	976.7799072265625	605.0845336914062	502.8763732910156	485.7666931152344	711.7388305664062	137.7929229736328	810.640380859375	747.6959228515625	914.5894775390625	636.8399047851562	734.8156127929688	485.6919555664062	
408	1.628	3538.87939453125	-665.2630615233459	-1547.538452148438	931.7197265625	659.446533203125	1267.488525390625	954.0635986328125	521.862548828125	646.0086669921875	911.21533203125	722.1155395507812	1064.385009765625	688.0847778320312	816.6165771484375	673.9382934570312	1099.319580078125	540.8132934570312	345.6536254882812	1285.372924804688	630.1693725585938	115.3785247802734	328.5998229980469	762.7067260742188	137.9782867431641	577.9592895507812	784.3803100585938	330.179931640625	527.193603515625	699.1837768554688	44.43436050415039	318.1715087890625	683.369140625	163.5380554199219	1076.988647460938	571.4947509765625	50.83616256713867	816.6013793945312	543.2696533203125	705.022705078125	772.1190795898438	825.5042724609375	859.1222534179688	1055.497680664062	664.53759765625	52.26544189453125	1006.950744628906	628.7901611328125	407.9340515136719	662.4256591796875	734.5347290039062	794.4117431640625	1113.08447265625	642.6265869140625	241.1254425048828	888.8961791992188	486.3536682128906	830.6019287109375	574.173095703125	688.7870483398438	436.8251342773438	508.6329040527344	689.020751953125	253.3768310546875	738.0887451171875	657.8779907226562	1435.962646484375	743.5591430664062	548.2651977539062	997.9046630859375	706.2874755859375	666.06884765625	1255.50537109375	732.7391967773438	747.5870971679688	1007.693420410156	918.3308715820312	610.404541015625	1066.5625	625.3986206054688	784.434326171875	491.7171936035156	631.4533081054688	681.0310668945312	480.0650634765625	976.386962890625	554.1253662109375	497.2061462402344	964.9324951171875	655.9302368164062	506.59228515625	471.1434326171875	667.2971801757812	145.1692962646484	485.4226989746094	754.0996704101562	128.3290100097656	1150.994018554688	664.852783203125	147.60302734375	1194.116577148438	580.605712890625	141.0842895507812	1172.555297851562	622.729248046875	144.3436584472656	827.0169067382812	560.8868408203125	910.2279663085938	970.6597290039062	605.02783203125	501.8992309570312	478.2830810546875	710.6984252929688	136.7491607666016	803.8229370117188	747.6239013671875	912.9917602539062	628.4259643554688	732.732666015625	485.8911437988281	
